<svg fill="#fff" xmlns="http://www.w3.org/2000/svg" height="24" viewBox="0 -960 960 960" width="48"><path d="M698.616-84v-120.001h-120v-58.383h120v-120h58.383v120h120v58.383h-120v120h-58.383Zm-503.922-81.001q-28.254 0-49.473-21.22-21.22-21.219-21.22-49.473v-505.227q0-28.254 21.22-49.473 21.219-21.22 49.473-21.22h57.846v-68h63.384v68h249.691v-68h62.229v68h57.462q28.254 0 49.473 21.22 21.22 21.219 21.22 49.473v278.536q-14.346-2.846-28.692-3.846t-29.692-.154v-98.614h-515.23v329.305q0 4.616 3.846 8.463 3.847 3.846 8.463 3.846h299.691q0 13.904 3.274 29.192 3.275 15.288 8.11 29.192H194.694Zm-12.309-458.381h515.23v-117.539q0-4.616-3.846-8.463-3.847-3.846-8.463-3.846H194.694q-4.616 0-8.463 3.846-3.846 3.847-3.846 8.463v117.539Zm0 0V-753.23v129.848Z"/></svg>