<svg fill="#db9303" xmlns="http://www.w3.org/2000/svg" height="48" viewBox="0 -960 960 960" width="48"><path d="m632-434-75-75q20-41-13.663-67T483-583l-69-69q17-8 33-11.5t33.616-3.5q69.309 0 117.847 48.537Q647-569.925 647-500.616q0 16.616-3.5 35.76T632-434Zm148 149-53-54q44-35 76-76.516 32-41.517 52-84.9Q802-609 704.042-674.5 606.083-740 489.209-740q-41.211 0-81.373 7-40.162 7-58.836 16l-63-64q34-14 90.62-26.5Q433.241-820 485.389-820 629-820 753.692-736.01 878.384-652.02 939-500q-24 66-66 120t-93 95Zm26 225L653-211q-35 14-79.651 22.5Q528.697-180 480-180q-148 0-273-84T21-500q17-52 55-103.5t87-99.77L40-823l48-50 763 763-45 50ZM219-648q-36 31-67 70.5T105-500q51.868 111.164 152.751 175.582Q358.634-260 488-260q28 0 57-4t47-12l-66-66q-9 3-21.29 6-12.291 3-24.71 3-68.75 0-117.875-48.125T313-500q0-11.484 2-23.242Q317-535 320-546L219-648Zm320 130Zm-134 67Z"/></svg>